<svg width="16" height="17" viewBox="0 0 16 17" fill="none" xmlns="http://www.w3.org/2000/svg">
<path d="M3.12483 4.64199L4.5335 13.1507C4.59793 13.5402 4.79856 13.8942 5.09963 14.1496C5.40071 14.405 5.78268 14.5452 6.1775 14.5453H8.4095M12.8748 4.64199L11.4668 13.1507C11.4024 13.5402 11.2018 13.8942 10.9007 14.1496C10.5996 14.405 10.2176 14.5452 9.82283 14.5453H7.59083M6.6815 7.91066V11.2767M9.31883 7.91066V11.2767M1.8335 4.64199H14.1668M9.8515 4.64199V3.45532C9.8515 3.19011 9.74614 2.93575 9.5586 2.74822C9.37107 2.56068 9.11671 2.45532 8.8515 2.45532H7.14883C6.88361 2.45532 6.62926 2.56068 6.44172 2.74822C6.25419 2.93575 6.14883 3.19011 6.14883 3.45532V4.64199H9.8515Z" stroke="#FAFAFA" stroke-width="1.5" stroke-linecap="round" stroke-linejoin="round"/>
</svg>
